<svg width="18" height="18" viewBox="0 0 14 12" fill="none" xmlns="http://www.w3.org/2000/svg">
<path fill-rule="evenodd" clip-rule="evenodd" d="M2.20001 2.00002C1.77566 2.00002 1.36869 2.1686 1.06864 2.46865C0.768577 2.76871 0.600006 3.17568 0.600006 3.60002V10C0.600006 10.4244 0.768577 10.8313 1.06864 11.1314C1.36869 11.4315 1.77566 11.6 2.20001 11.6H11.8C12.2244 11.6 12.6313 11.4315 12.9314 11.1314C13.2314 10.8313 13.4 10.4244 13.4 10V3.60002C13.4 3.17568 13.2314 2.76871 12.9314 2.46865C12.6313 2.1686 12.2244 2.00002 11.8 2.00002H10.5312C10.319 1.99998 10.1156 1.91566 9.96561 1.76562L9.06881 0.868824C8.76882 0.568745 8.36192 0.400115 7.93761 0.400024H6.06241C5.63809 0.400115 5.23119 0.568745 4.93121 0.868824L4.03441 1.76562C3.88441 1.91566 3.68096 1.99998 3.46881 2.00002H2.20001ZM7.00001 9.20003C7.31518 9.20003 7.62726 9.13795 7.91845 9.01734C8.20963 8.89672 8.4742 8.71994 8.69706 8.49708C8.91992 8.27422 9.09671 8.00965 9.21732 7.71847C9.33793 7.42728 9.40001 7.1152 9.40001 6.80002C9.40001 6.48485 9.33793 6.17277 9.21732 5.88158C9.09671 5.5904 8.91992 5.32583 8.69706 5.10297C8.4742 4.88011 8.20963 4.70332 7.91845 4.58271C7.62726 4.4621 7.31518 4.40002 7.00001 4.40002C6.36349 4.40002 5.75304 4.65288 5.30295 5.10297C4.85286 5.55306 4.60001 6.16351 4.60001 6.80002C4.60001 7.43654 4.85286 8.04699 5.30295 8.49708C5.75304 8.94717 6.36349 9.20003 7.00001 9.20003Z" fill="#8B8B8B"/>
</svg>
