<svg width="16" height="16" viewBox="0 0 10 10" fill="none" xmlns="http://www.w3.org/2000/svg">
<path fill-rule="evenodd" clip-rule="evenodd" d="M5 9.79995C6.27304 9.79995 7.49393 9.29424 8.39411 8.39406C9.29428 7.49389 9.8 6.27299 9.8 4.99995C9.8 3.72691 9.29428 2.50601 8.39411 1.60584C7.49393 0.705664 6.27304 0.199951 5 0.199951C3.72696 0.199951 2.50606 0.705664 1.60588 1.60584C0.70571 2.50601 0.199997 3.72691 0.199997 4.99995C0.199997 6.27299 0.70571 7.49389 1.60588 8.39406C2.50606 9.29424 3.72696 9.79995 5 9.79995ZM7.2242 4.22415C7.33349 4.11099 7.39397 3.95943 7.3926 3.80211C7.39123 3.64479 7.32813 3.4943 7.21689 3.38306C7.10564 3.27182 6.95515 3.20871 6.79784 3.20735C6.64052 3.20598 6.48896 3.26646 6.3758 3.37575L4.4 5.35155L3.6242 4.57575C3.51104 4.46646 3.35947 4.40598 3.20216 4.40735C3.04484 4.40871 2.89435 4.47182 2.78311 4.58306C2.67186 4.6943 2.60876 4.84479 2.60739 5.00211C2.60603 5.15943 2.6665 5.31099 2.7758 5.42415L3.9758 6.62415C4.08831 6.73663 4.2409 6.79982 4.4 6.79982C4.5591 6.79982 4.71168 6.73663 4.8242 6.62415L7.2242 4.22415Z" fill="#24AF8E"/>
</svg>
