<svg width="12" height="14" viewBox="0 0 12 14" fill="none" xmlns="http://www.w3.org/2000/svg">
<path d="M5.99998 0.599976C4.72694 0.599976 3.50604 1.10569 2.60586 2.00586C1.70569 2.90604 1.19998 4.12694 1.19998 5.39998V8.26878L0.634376 8.83438C0.522528 8.94626 0.446363 9.08879 0.415509 9.24395C0.384655 9.39911 0.400498 9.55994 0.461034 9.7061C0.52157 9.85226 0.624081 9.97719 0.755609 10.0651C0.887137 10.153 1.04178 10.1999 1.19998 10.2H10.8C10.9582 10.1999 11.1128 10.153 11.2443 10.0651C11.3759 9.97719 11.4784 9.85226 11.5389 9.7061C11.5995 9.55994 11.6153 9.39911 11.5844 9.24395C11.5536 9.08879 11.4774 8.94626 11.3656 8.83438L10.8 8.26878V5.39998C10.8 4.12694 10.2943 2.90604 9.39409 2.00586C8.49391 1.10569 7.27301 0.599976 5.99998 0.599976ZM5.99998 13.4C5.36346 13.4 4.75301 13.1471 4.30292 12.697C3.85283 12.2469 3.59998 11.6365 3.59998 11H8.39998C8.39998 11.6365 8.14712 12.2469 7.69703 12.697C7.24695 13.1471 6.6365 13.4 5.99998 13.4Z" fill="#7E8090"/>
</svg>
