<svg width="14" height="15" viewBox="0 0 14 15" fill="none" xmlns="http://www.w3.org/2000/svg">
<path d="M1.39998 0.800049C1.1878 0.800049 0.984319 0.884334 0.83429 1.03436C0.684261 1.18439 0.599976 1.38788 0.599976 1.60005C0.599976 1.81222 0.684261 2.01571 0.83429 2.16573C0.984319 2.31576 1.1878 2.40005 1.39998 2.40005H2.37598L2.61998 3.37765C2.6224 3.38891 2.62507 3.40011 2.62798 3.41125L3.71438 7.75525L2.99998 8.46885C1.99198 9.47685 2.70558 11.2 4.13118 11.2H11C11.2121 11.2 11.4156 11.1158 11.5657 10.9657C11.7157 10.8157 11.8 10.6122 11.8 10.4C11.8 10.1879 11.7157 9.98439 11.5657 9.83436C11.4156 9.68433 11.2121 9.60005 11 9.60005H4.13118L4.93118 8.80005H10.2C10.3485 8.79997 10.4941 8.75854 10.6204 8.68041C10.7467 8.60227 10.8488 8.49051 10.9152 8.35765L13.3152 3.55765C13.3761 3.43571 13.4049 3.30023 13.3987 3.16405C13.3926 3.02788 13.3518 2.89553 13.2801 2.77956C13.2085 2.6636 13.1084 2.56786 12.9894 2.50144C12.8703 2.43502 12.7363 2.40012 12.6 2.40005H4.02398L3.77598 1.40565C3.73264 1.23265 3.63274 1.0791 3.49214 0.969373C3.35155 0.859651 3.17832 0.800054 2.99998 0.800049H1.39998ZM11.8 13.2C11.8 13.5183 11.6735 13.8235 11.4485 14.0486C11.2235 14.2736 10.9182 14.4 10.6 14.4C10.2817 14.4 9.97649 14.2736 9.75145 14.0486C9.5264 13.8235 9.39997 13.5183 9.39997 13.2C9.39997 12.8818 9.5264 12.5766 9.75145 12.3515C9.97649 12.1265 10.2817 12 10.6 12C10.9182 12 11.2235 12.1265 11.4485 12.3515C11.6735 12.5766 11.8 12.8818 11.8 13.2ZM4.19998 14.4C4.51824 14.4 4.82346 14.2736 5.0485 14.0486C5.27355 13.8235 5.39998 13.5183 5.39998 13.2C5.39998 12.8818 5.27355 12.5766 5.0485 12.3515C4.82346 12.1265 4.51824 12 4.19998 12C3.88172 12 3.57649 12.1265 3.35145 12.3515C3.1264 12.5766 2.99998 12.8818 2.99998 13.2C2.99998 13.5183 3.1264 13.8235 3.35145 14.0486C3.57649 14.2736 3.88172 14.4 4.19998 14.4Z" fill="#7E8090"/>
</svg>
