<svg width="12" height="15" viewBox="0 0 12 15" fill="none" xmlns="http://www.w3.org/2000/svg">
<path fill-rule="evenodd" clip-rule="evenodd" d="M2.04 2.24002C3.09026 1.18976 4.51471 0.599731 6 0.599731C7.48529 0.599731 8.90974 1.18976 9.96 2.24002C11.0103 3.29027 11.6003 4.71473 11.6003 6.20002C11.6003 7.68531 11.0103 9.10976 9.96 10.16L6 14.12L2.04 10.16C1.51993 9.64 1.10739 9.02264 0.825926 8.34318C0.544464 7.66372 0.399597 6.93547 0.399597 6.20002C0.399597 5.46457 0.544464 4.73632 0.825926 4.05686C1.10739 3.3774 1.51993 2.76003 2.04 2.24002ZM6 7.80002C6.42435 7.80002 6.83131 7.63144 7.13137 7.33139C7.43143 7.03133 7.6 6.62436 7.6 6.20002C7.6 5.77567 7.43143 5.3687 7.13137 5.06865C6.83131 4.76859 6.42435 4.60002 6 4.60002C5.57565 4.60002 5.16869 4.76859 4.86863 5.06865C4.56857 5.3687 4.4 5.77567 4.4 6.20002C4.4 6.62436 4.56857 7.03133 4.86863 7.33139C5.16869 7.63144 5.57565 7.80002 6 7.80002Z" fill="#7E8090"/>
</svg>
