<svg width="6" height="10" viewBox="0 0 6 10" fill="none" xmlns="http://www.w3.org/2000/svg">
<path fill-rule="evenodd" clip-rule="evenodd" d="M0.293 9.70704C0.105529 9.51951 0.000213623 9.26521 0.000213623 9.00004C0.000213623 8.73488 0.105529 8.48057 0.293 8.29304L3.586 5.00004L0.293 1.70704C0.110842 1.51844 0.0100473 1.26584 0.0123258 1.00364C0.0146042 0.741443 0.119773 0.490631 0.305182 0.305223C0.49059 0.119815 0.741402 0.0146453 1.0036 0.0123669C1.2658 0.0100885 1.5184 0.110883 1.707 0.293041L5.707 4.29304C5.89447 4.48057 5.99979 4.73488 5.99979 5.00004C5.99979 5.26521 5.89447 5.51951 5.707 5.70704L1.707 9.70704C1.51947 9.89451 1.26516 9.99983 1 9.99983C0.734836 9.99983 0.480528 9.89451 0.293 9.70704Z" fill="#7E8090"/>
</svg>
