<svg width="12" height="14" viewBox="0 0 12 14" fill="none" xmlns="http://www.w3.org/2000/svg">
<path fill-rule="evenodd" clip-rule="evenodd" d="M2.00002 0.599976C1.57568 0.599976 1.16871 0.768546 0.868654 1.0686C0.568595 1.36866 0.400024 1.77563 0.400024 2.19998V13.4L3.20002 11.8L6.00002 13.4L8.80002 11.8L11.6 13.4V2.19998C11.6 1.77563 11.4315 1.36866 11.1314 1.0686C10.8313 0.768546 10.4244 0.599976 10 0.599976H2.00002ZM5.76562 3.56558C5.91135 3.41469 5.99199 3.21261 5.99016 3.00285C5.98834 2.7931 5.90421 2.59245 5.75588 2.44412C5.60755 2.29579 5.4069 2.21166 5.19715 2.20984C4.98739 2.20801 4.78531 2.28865 4.63443 2.43438L2.23442 4.83438C2.08445 4.9844 2.0002 5.18784 2.0002 5.39998C2.0002 5.61211 2.08445 5.81555 2.23442 5.96558L4.63443 8.36557C4.78531 8.5113 4.98739 8.59194 5.19715 8.59011C5.4069 8.58829 5.60755 8.50416 5.75588 8.35583C5.90421 8.2075 5.98834 8.00685 5.99016 7.7971C5.99199 7.58734 5.91135 7.38526 5.76562 7.23438L4.73122 6.19998H6.00002C6.63654 6.19998 7.24699 6.45283 7.69708 6.90292C8.14717 7.35301 8.40003 7.96346 8.40003 8.59998V9.39997C8.40003 9.61215 8.48431 9.81563 8.63434 9.96566C8.78437 10.1157 8.98785 10.2 9.20003 10.2C9.4122 10.2 9.61568 10.1157 9.76571 9.96566C9.91574 9.81563 10 9.61215 10 9.39997V8.59998C10 7.53911 9.5786 6.52169 8.82845 5.77155C8.07831 5.0214 7.06089 4.59998 6.00002 4.59998H4.73122L5.76562 3.56558Z" fill="#7E8090"/>
</svg>
