<svg width="14" height="14" viewBox="0 0 14 14" fill="none" xmlns="http://www.w3.org/2000/svg">
<path fill-rule="evenodd" clip-rule="evenodd" d="M6.99998 13.4C8.69736 13.4 10.3252 12.7257 11.5255 11.5255C12.7257 10.3252 13.4 8.69736 13.4 6.99998C13.4 5.30259 12.7257 3.67472 11.5255 2.47449C10.3252 1.27426 8.69736 0.599976 6.99998 0.599976C5.30259 0.599976 3.67472 1.27426 2.47449 2.47449C1.27426 3.67472 0.599976 5.30259 0.599976 6.99998C0.599976 8.69736 1.27426 10.3252 2.47449 11.5255C3.67472 12.7257 5.30259 13.4 6.99998 13.4ZM4.59998 2.99998C4.3878 2.99998 4.18432 3.08426 4.03429 3.23429C3.88426 3.38432 3.79998 3.5878 3.79998 3.79998C3.79998 4.01215 3.88426 4.21563 4.03429 4.36566C4.18432 4.51569 4.3878 4.59998 4.59998 4.59998H5.39998C5.68083 4.59998 5.95673 4.67392 6.19995 4.81434C6.44318 4.95477 6.64515 5.15675 6.78558 5.39998H4.59998C4.3878 5.39998 4.18432 5.48426 4.03429 5.63429C3.88426 5.78432 3.79998 5.9878 3.79998 6.19998C3.79998 6.41215 3.88426 6.61563 4.03429 6.76566C4.18432 6.91569 4.3878 6.99998 4.59998 6.99998H6.78558C6.64515 7.2432 6.44318 7.44518 6.19995 7.58561C5.95673 7.72604 5.68083 7.79997 5.39998 7.79998H4.59998C4.44178 7.80001 4.28714 7.84695 4.15561 7.93485C4.02408 8.02276 3.92157 8.14769 3.86103 8.29385C3.8005 8.44001 3.78465 8.60084 3.81551 8.756C3.84636 8.91116 3.92253 9.05369 4.03438 9.16558L6.43438 11.5656C6.58526 11.7113 6.78734 11.7919 6.9971 11.7901C7.20685 11.7883 7.4075 11.7042 7.55583 11.5558C7.70416 11.4075 7.78829 11.2069 7.79011 10.9971C7.79194 10.7873 7.7113 10.5853 7.56558 10.4344L6.37918 9.24718C6.89321 9.08146 7.35705 8.78859 7.72767 8.39574C8.09828 8.00288 8.36366 7.52278 8.49917 6.99998H9.39997C9.61215 6.99998 9.81563 6.91569 9.96566 6.76566C10.1157 6.61563 10.2 6.41215 10.2 6.19998C10.2 5.9878 10.1157 5.78432 9.96566 5.63429C9.81563 5.48426 9.61215 5.39998 9.39997 5.39998H8.49917C8.42676 5.11962 8.31641 4.85047 8.17118 4.59998H9.39997C9.61215 4.59998 9.81563 4.51569 9.96566 4.36566C10.1157 4.21563 10.2 4.01215 10.2 3.79998C10.2 3.5878 10.1157 3.38432 9.96566 3.23429C9.81563 3.08426 9.61215 2.99998 9.39997 2.99998H4.59998Z" fill="#7E8090"/>
</svg>
