<svg width="14" height="14" viewBox="0 0 14 14" fill="none" xmlns="http://www.w3.org/2000/svg">
<path fill-rule="evenodd" clip-rule="evenodd" d="M4.01359 1.76399C4.52819 1.7229 5.01672 1.52049 5.40959 1.18559C5.85331 0.807658 6.41713 0.600098 6.99999 0.600098C7.58284 0.600098 8.14666 0.807658 8.59038 1.18559C8.98325 1.52049 9.47178 1.7229 9.98638 1.76399C10.5675 1.81043 11.1131 2.06236 11.5254 2.4746C11.9376 2.88684 12.1895 3.43244 12.236 4.01359C12.2768 4.52799 12.4792 5.01679 12.8144 5.40959C13.1923 5.85331 13.3999 6.41713 13.3999 6.99999C13.3999 7.58284 13.1923 8.14666 12.8144 8.59038C12.4795 8.98325 12.2771 9.47178 12.236 9.98638C12.1895 10.5675 11.9376 11.1131 11.5254 11.5254C11.1131 11.9376 10.5675 12.1895 9.98638 12.236C9.47178 12.2771 8.98325 12.4795 8.59038 12.8144C8.14666 13.1923 7.58284 13.3999 6.99999 13.3999C6.41713 13.3999 5.85331 13.1923 5.40959 12.8144C5.01672 12.4795 4.52819 12.2771 4.01359 12.236C3.43244 12.1895 2.88684 11.9376 2.4746 11.5254C2.06236 11.1131 1.81043 10.5675 1.76399 9.98638C1.7229 9.47178 1.52049 8.98325 1.18559 8.59038C0.807658 8.14666 0.600098 7.58284 0.600098 6.99999C0.600098 6.41713 0.807658 5.85331 1.18559 5.40959C1.52049 5.01672 1.7229 4.52819 1.76399 4.01359C1.81043 3.43244 2.06236 2.88684 2.4746 2.4746C2.88684 2.06236 3.43244 1.81043 4.01359 1.76399ZM9.96558 5.96559C10.1113 5.8147 10.1919 5.61262 10.1901 5.40286C10.1883 5.19311 10.1042 4.99246 9.95584 4.84413C9.80751 4.6958 9.60686 4.61167 9.39711 4.60985C9.18735 4.60802 8.98527 4.68866 8.83438 4.83439L6.19999 7.46879L5.16559 6.43439C5.0147 6.28866 4.81262 6.20802 4.60286 6.20985C4.39311 6.21167 4.19246 6.2958 4.04413 6.44413C3.8958 6.59246 3.81167 6.79311 3.80985 7.00286C3.80802 7.21262 3.88866 7.4147 4.03439 7.56559L5.63439 9.16558C5.78441 9.31556 5.98785 9.39981 6.19999 9.39981C6.41212 9.39981 6.61556 9.31556 6.76558 9.16558L9.96558 5.96559Z" fill="#7E8090"/>
</svg>
