<svg width="12" height="13" viewBox="0 0 12 13" fill="none" xmlns="http://www.w3.org/2000/svg">
<path d="M5.23922 1.34154C5.47922 0.60474 6.52162 0.60474 6.76082 1.34154L7.61682 3.97514C7.66911 4.13553 7.77078 4.27528 7.90727 4.37442C8.04377 4.47356 8.20811 4.52702 8.37682 4.52714H11.1464C11.9216 4.52714 12.2432 5.51914 11.6168 5.97514L9.37682 7.60234C9.24004 7.70156 9.1382 7.84155 9.08588 8.00222C9.03357 8.1629 9.03348 8.33601 9.08562 8.49674L9.94162 11.1303C10.1816 11.8671 9.33762 12.4807 8.70962 12.0247L6.46962 10.3975C6.33298 10.2983 6.16846 10.2449 5.99962 10.2449C5.83077 10.2449 5.66625 10.2983 5.52962 10.3975L3.28962 12.0247C2.66242 12.4807 1.81922 11.8671 2.05842 11.1303L2.91442 8.49674C2.96656 8.33601 2.96646 8.1629 2.91415 8.00222C2.86184 7.84155 2.75999 7.70156 2.62322 7.60234L0.384016 5.97594C-0.242384 5.51994 0.080016 4.52794 0.854416 4.52794H3.62322C3.79205 4.52799 3.95658 4.47461 4.09324 4.37546C4.22989 4.27631 4.33168 4.13646 4.38402 3.97594L5.24002 1.34234L5.23922 1.34154Z" fill="#7E8090"/>
</svg>
