<svg width="14" height="14" viewBox="0 0 14 14" fill="none" xmlns="http://www.w3.org/2000/svg">
<path fill-rule="evenodd" clip-rule="evenodd" d="M13.4 6.99998C13.4 8.69736 12.7257 10.3252 11.5255 11.5255C10.3252 12.7257 8.69736 13.4 6.99998 13.4C5.30259 13.4 3.67472 12.7257 2.47449 11.5255C1.27426 10.3252 0.599976 8.69736 0.599976 6.99998C0.599976 5.30259 1.27426 3.67472 2.47449 2.47449C3.67472 1.27426 5.30259 0.599976 6.99998 0.599976C8.69736 0.599976 10.3252 1.27426 11.5255 2.47449C12.7257 3.67472 13.4 5.30259 13.4 6.99998ZM11.8 6.99998C11.8 7.79437 11.6072 8.54317 11.2656 9.20317L10.0464 7.98318C10.2289 7.41813 10.2505 6.81341 10.1088 6.23677L11.3584 4.98718C11.6416 5.59918 11.8 6.27998 11.8 6.99998ZM7.66798 10.1304L8.93198 11.3944C8.32318 11.6624 7.66517 11.8006 6.99998 11.8C6.30492 11.8008 5.61803 11.6501 4.98718 11.3584L6.23677 10.1088C6.70611 10.2238 7.19538 10.2312 7.66798 10.1304ZM3.92638 7.89357C3.76894 7.3515 3.75763 6.77743 3.89358 6.22958L3.82958 6.29357L2.60558 5.06718C2.33742 5.67622 2.19928 6.33451 2.19998 6.99998C2.19998 7.76318 2.37838 8.48477 2.69518 9.12558L3.92718 7.89357H3.92638ZM4.79678 2.73358C5.47775 2.38159 6.23341 2.19858 6.99998 2.19998C7.76318 2.19998 8.48477 2.37838 9.12558 2.69518L7.89357 3.92718C7.27939 3.74828 6.62569 3.75747 6.01678 3.95358L4.79678 2.73438V2.73358ZM8.59998 6.99998C8.59998 7.42432 8.4314 7.83129 8.13135 8.13135C7.83129 8.4314 7.42432 8.59998 6.99998 8.59998C6.57563 8.59998 6.16866 8.4314 5.8686 8.13135C5.56855 7.83129 5.39998 7.42432 5.39998 6.99998C5.39998 6.57563 5.56855 6.16866 5.8686 5.8686C6.16866 5.56855 6.57563 5.39998 6.99998 5.39998C7.42432 5.39998 7.83129 5.56855 8.13135 5.8686C8.4314 6.16866 8.59998 6.57563 8.59998 6.99998Z" fill="#7E8090"/>
</svg>
