<svg width="22" height="22" viewBox="0 0 16 14" fill="none" xmlns="http://www.w3.org/2000/svg">
<path fill-rule="evenodd" clip-rule="evenodd" d="M4.70285 11.5082C4.70285 11.1713 4.38261 10.7568 3.81531 10.7568C3.24802 10.7568 2.92778 11.1713 2.92778 11.5082C2.92778 11.8452 3.24802 12.2596 3.81531 12.2596C4.38261 12.2596 4.70285 11.8452 4.70285 11.5082ZM5.95513 11.5082C5.95513 10.4036 4.99564 9.50457 3.81531 9.50457C2.63499 9.50457 1.6755 10.4036 1.6755 11.5082C1.6755 12.6128 2.63499 13.5119 3.81531 13.5119C4.99564 13.5119 5.95513 12.6128 5.95513 11.5082Z" fill="#7C7C7C"/>
<path fill-rule="evenodd" clip-rule="evenodd" d="M8.42445 1.74044H1.35225L1.35225 10.2559H2.14599C1.85171 10.5992 1.6755 11.0348 1.6755 11.5082H1.35225C0.660639 11.5082 0.0999756 10.9475 0.0999756 10.2559V1.74044C0.0999756 1.04882 0.66064 0.488159 1.35225 0.488159H8.42445C9.11606 0.488159 9.67673 1.04882 9.67673 1.74044V3.49363H11.691C12.0499 3.49363 12.3915 3.6476 12.6292 3.91649L14.7859 6.35612C14.9883 6.58503 15.1 6.88002 15.1 7.18554V10.2559C15.1 10.9301 14.5673 11.4798 13.8999 11.5071C13.8996 11.0342 13.7234 10.599 13.4294 10.2559H13.8477V7.62615H9.67673V10.2559H10.0907C9.79644 10.5992 9.62023 11.0348 9.62023 11.5082H5.95513C5.95513 11.0348 5.77892 10.5992 5.48464 10.2559H8.42029V4.74591C8.42029 4.71131 8.42169 4.67703 8.42445 4.64314V1.74044ZM13.1302 6.37387H9.67673V4.74591H11.691L13.1302 6.37387Z" fill="#7C7C7C"/>
<path fill-rule="evenodd" clip-rule="evenodd" d="M12.6476 11.5082C12.6476 11.1713 12.3274 10.7568 11.7601 10.7568C11.1928 10.7568 10.8726 11.1713 10.8726 11.5082C10.8726 11.8452 11.1928 12.2596 11.7601 12.2596C12.3274 12.2596 12.6476 11.8452 12.6476 11.5082ZM13.8999 11.5082C13.8999 10.4036 12.9404 9.50457 11.7601 9.50457C10.5798 9.50457 9.62023 10.4036 9.62023 11.5082C9.62023 12.6128 10.5798 13.5119 11.7601 13.5119C12.9404 13.5119 13.8999 12.6128 13.8999 11.5082Z" fill="#7C7C7C"/>
</svg>
