<svg width="22" height="22" viewBox="0 0 16 14" fill="none" xmlns="http://www.w3.org/2000/svg">
<path fill-rule="evenodd" clip-rule="evenodd" d="M7.707 13.707C7.51947 13.8945 7.26516 13.9998 7 13.9998C6.73484 13.9998 6.48053 13.8945 6.293 13.707L0.293 7.70704C0.105529 7.51951 0.000213623 7.26521 0.000213623 7.00004C0.000213623 6.73488 0.105529 6.48057 0.293 6.29304L6.293 0.293041C6.4816 0.110883 6.7342 0.0100885 6.9964 0.0123669C7.2586 0.0146453 7.50941 0.119814 7.69482 0.305222C7.88023 0.490631 7.9854 0.741443 7.98767 1.00364C7.98995 1.26584 7.88916 1.51844 7.707 1.70704L3.414 6.00004H15C15.2652 6.00004 15.5196 6.1054 15.7071 6.29293C15.8946 6.48047 16 6.73482 16 7.00004C16 7.26526 15.8946 7.51961 15.7071 7.70715C15.5196 7.89468 15.2652 8.00004 15 8.00004H3.414L7.707 12.293C7.89447 12.4806 7.99979 12.7349 7.99979 13C7.99979 13.2652 7.89447 13.5195 7.707 13.707Z" fill="black"/>
</svg>
