<svg width="14" height="14" viewBox="0 0 14 14" fill="none" xmlns="http://www.w3.org/2000/svg">
<path fill-rule="evenodd" clip-rule="evenodd" d="M7.00001 13.4C8.69739 13.4 10.3253 12.7257 11.5255 11.5255C12.7257 10.3253 13.4 8.69739 13.4 7.00001C13.4 5.30262 12.7257 3.67476 11.5255 2.47452C10.3253 1.27429 8.69739 0.600006 7.00001 0.600006C5.30262 0.600006 3.67476 1.27429 2.47452 2.47452C1.27429 3.67476 0.600006 5.30262 0.600006 7.00001C0.600006 8.69739 1.27429 10.3253 2.47452 11.5255C3.67476 12.7257 5.30262 13.4 7.00001 13.4ZM5.96561 4.83441C5.81472 4.68868 5.61264 4.60804 5.40289 4.60987C5.19313 4.61169 4.99248 4.69583 4.84415 4.84415C4.69583 4.99248 4.61169 5.19313 4.60987 5.40289C4.60804 5.61264 4.68868 5.81472 4.83441 5.96561L5.86881 7.00001L4.83441 8.03441C4.758 8.1082 4.69705 8.19648 4.65513 8.29408C4.6132 8.39169 4.59113 8.49666 4.59021 8.60289C4.58928 8.70911 4.60952 8.81445 4.64975 8.91277C4.68997 9.01109 4.74938 9.10041 4.82449 9.17552C4.8996 9.25064 4.98893 9.31004 5.08724 9.35026C5.18556 9.39049 5.2909 9.41073 5.39713 9.40981C5.50335 9.40889 5.60833 9.38682 5.70593 9.34489C5.80353 9.30296 5.89181 9.24201 5.96561 9.16561L7.00001 8.13121L8.03441 9.16561C8.18529 9.31133 8.38737 9.39197 8.59713 9.39015C8.80688 9.38832 9.00753 9.30419 9.15586 9.15586C9.30419 9.00753 9.38832 8.80688 9.39015 8.59713C9.39197 8.38737 9.31133 8.18529 9.16561 8.03441L8.13121 7.00001L9.16561 5.96561C9.31133 5.81472 9.39197 5.61264 9.39015 5.40289C9.38832 5.19313 9.30419 4.99248 9.15586 4.84415C9.00753 4.69583 8.80688 4.61169 8.59713 4.60987C8.38737 4.60804 8.18529 4.68868 8.03441 4.83441L7.00001 5.86881L5.96561 4.83441Z" fill="#8B8B8B"/>
</svg>
