<svg width="20" height="20" viewBox="0 0 20 20" fill="none" xmlns="http://www.w3.org/2000/svg">
<mask id="path-1-inside-1_7:70" fill="white">
<path fill-rule="evenodd" clip-rule="evenodd" d="M8.5 3.5C8.5 2.94772 8.05228 2.5 7.5 2.5H3.5C2.94772 2.5 2.5 2.94772 2.5 3.5V7.5C2.5 8.05228 2.94772 8.5 3.5 8.5H7.5C8.05228 8.5 8.5 8.05228 8.5 7.5V3.5ZM8.5 12.5C8.5 11.9477 8.05228 11.5 7.5 11.5H3.5C2.94772 11.5 2.5 11.9477 2.5 12.5V16.5C2.5 17.0523 2.94772 17.5 3.5 17.5H7.5C8.05228 17.5 8.5 17.0523 8.5 16.5V12.5ZM11.5 3.5C11.5 2.94772 11.9477 2.5 12.5 2.5H16.5C17.0523 2.5 17.5 2.94772 17.5 3.5V7.5C17.5 8.05228 17.0523 8.5 16.5 8.5H12.5C11.9477 8.5 11.5 8.05228 11.5 7.5V3.5ZM17.5 12.5C17.5 11.9477 17.0523 11.5 16.5 11.5H12.5C11.9477 11.5 11.5 11.9477 11.5 12.5V16.5C11.5 17.0523 11.9477 17.5 12.5 17.5H16.5C17.0523 17.5 17.5 17.0523 17.5 16.5V12.5Z"/>
</mask>
<path d="M3.5 3.5H7.5V1.5H3.5V3.5ZM3.5 7.5V3.5H1.5V7.5H3.5ZM7.5 7.5H3.5V9.5H7.5V7.5ZM7.5 3.5V7.5H9.5V3.5H7.5ZM3.5 12.5H7.5V10.5H3.5V12.5ZM3.5 16.5V12.5H1.5V16.5H3.5ZM7.5 16.5H3.5V18.5H7.5V16.5ZM7.5 12.5V16.5H9.5V12.5H7.5ZM16.5 1.5H12.5V3.5H16.5V1.5ZM18.5 7.5V3.5H16.5V7.5H18.5ZM12.5 9.5H16.5V7.5H12.5V9.5ZM10.5 3.5V7.5H12.5V3.5H10.5ZM12.5 12.5H16.5V10.5H12.5V12.5ZM12.5 16.5V12.5H10.5V16.5H12.5ZM16.5 16.5H12.5V18.5H16.5V16.5ZM16.5 12.5V16.5H18.5V12.5H16.5ZM16.5 18.5C17.6046 18.5 18.5 17.6046 18.5 16.5H16.5V18.5ZM10.5 16.5C10.5 17.6046 11.3954 18.5 12.5 18.5V16.5H10.5ZM16.5 12.5H18.5C18.5 11.3954 17.6046 10.5 16.5 10.5V12.5ZM12.5 10.5C11.3954 10.5 10.5 11.3954 10.5 12.5H12.5V10.5ZM12.5 7.5H10.5C10.5 8.60457 11.3954 9.5 12.5 9.5V7.5ZM16.5 7.5V9.5C17.6046 9.5 18.5 8.60457 18.5 7.5H16.5ZM12.5 1.5C11.3954 1.5 10.5 2.39543 10.5 3.5H12.5V1.5ZM16.5 3.5V3.5H18.5C18.5 2.39543 17.6046 1.5 16.5 1.5V3.5ZM7.5 18.5C8.60457 18.5 9.5 17.6046 9.5 16.5H7.5V18.5ZM1.5 16.5C1.5 17.6046 2.39543 18.5 3.5 18.5V16.5H3.5H1.5ZM7.5 12.5H9.5C9.5 11.3954 8.60457 10.5 7.5 10.5V12.5ZM3.5 10.5C2.39543 10.5 1.5 11.3954 1.5 12.5H3.5V10.5ZM7.5 9.5C8.60457 9.5 9.5 8.60457 9.5 7.5H7.5V9.5ZM1.5 7.5C1.5 8.60457 2.39543 9.5 3.5 9.5V7.5H3.5H1.5ZM7.5 3.5H9.5C9.5 2.39543 8.60457 1.5 7.5 1.5V3.5ZM3.5 1.5C2.39543 1.5 1.5 2.39543 1.5 3.5H3.5V3.5V1.5Z" fill="#7C7C7C" mask="url(#path-1-inside-1_7:70)"/>
</svg>
