<svg width="16" height="16" viewBox="0 0 16 16" fill="none" xmlns="http://www.w3.org/2000/svg">
<path d="M0.5 8L2.16667 6.33333M2.16667 6.33333L8 0.5L13.8333 6.33333M2.16667 6.33333V14.6667C2.16667 14.8877 2.25446 15.0996 2.41074 15.2559C2.56702 15.4122 2.77899 15.5 3 15.5H5.5C5.72101 15.5 5.93298 15.4122 6.08926 15.2559C6.24554 15.0996 6.33333 14.8877 6.33333 14.6667V11.3333C6.33333 11.1123 6.42113 10.9004 6.57741 10.7441C6.73369 10.5878 6.94565 10.5 7.16667 10.5H8.83333C9.05435 10.5 9.26631 10.5878 9.42259 10.7441C9.57887 10.9004 9.66667 11.1123 9.66667 11.3333V14.6667C9.66667 14.8877 9.75446 15.0996 9.91074 15.2559C10.067 15.4122 10.279 15.5 10.5 15.5H13C13.221 15.5 13.433 15.4122 13.5893 15.2559C13.7455 15.0996 13.8333 14.8877 13.8333 14.6667V6.33333M13.8333 6.33333L15.5 8" stroke="#7C7C7C" stroke-linecap="round" stroke-linejoin="round"/>
</svg>
