<svg width="20" height="20" viewBox="0 0 20 20" fill="none" xmlns="http://www.w3.org/2000/svg">
<path d="M7.5 4.16667H5.83333C5.3913 4.16667 4.96738 4.34226 4.65482 4.65482C4.34226 4.96738 4.16666 5.39131 4.16666 5.83333V15.8333C4.16666 16.2754 4.34226 16.6993 4.65482 17.0118C4.96738 17.3244 5.3913 17.5 5.83333 17.5H14.1667C14.6087 17.5 15.0326 17.3244 15.3452 17.0118C15.6577 16.6993 15.8333 16.2754 15.8333 15.8333V5.83333C15.8333 5.39131 15.6577 4.96738 15.3452 4.65482C15.0326 4.34226 14.6087 4.16667 14.1667 4.16667H12.5M7.5 4.16667C7.5 4.60869 7.67559 5.03262 7.98815 5.34518C8.30071 5.65774 8.72464 5.83333 9.16666 5.83333H10.8333C11.2754 5.83333 11.6993 5.65774 12.0118 5.34518C12.3244 5.03262 12.5 4.60869 12.5 4.16667M7.5 4.16667C7.5 3.72464 7.67559 3.30072 7.98815 2.98816C8.30071 2.67559 8.72464 2.5 9.16666 2.5H10.8333C11.2754 2.5 11.6993 2.67559 12.0118 2.98816C12.3244 3.30072 12.5 3.72464 12.5 4.16667M10 10H12.5M10 13.3333H12.5M7.5 10H7.50833M7.5 13.3333H7.50833" stroke="#7C7C7C" stroke-linecap="round" stroke-linejoin="round"/>
</svg>
