<svg width="18" height="18" viewBox="0 0 18 18" fill="none" xmlns="http://www.w3.org/2000/svg">
<path d="M6.23665 10.1183C6.40498 9.78166 6.49998 9.40166 6.49998 8.99999C6.49998 8.59833 6.40498 8.21833 6.23665 7.88166V10.1183ZM6.23665 10.1183C5.98474 10.622 5.57015 11.0258 5.06006 11.2645C4.54997 11.5031 3.97426 11.5625 3.42619 11.4331C2.87812 11.3037 2.38979 10.993 2.04033 10.5514C1.69087 10.1098 1.50073 9.56314 1.50073 8.99999C1.50073 8.43685 1.69087 7.8902 2.04033 7.4486C2.38979 7.007 2.87812 6.69633 3.42619 6.56691C3.97426 6.43749 4.54997 6.4969 5.06006 6.73552C5.57015 6.97415 5.98474 7.378 6.23665 7.88166V10.1183ZM6.23665 10.1183L11.7633 12.8817L6.23665 10.1183ZM6.23665 7.88166L11.7633 5.11833L6.23665 7.88166ZM11.7633 5.11833C11.9102 5.412 12.1134 5.67386 12.3615 5.88897C12.6096 6.10409 12.8976 6.26823 13.2091 6.37204C13.5206 6.47585 13.8495 6.51729 14.177 6.49399C14.5045 6.47069 14.8242 6.38311 15.1179 6.23624C15.4116 6.08938 15.6734 5.88612 15.8885 5.63805C16.1037 5.38999 16.2678 5.10198 16.3716 4.79048C16.4754 4.47898 16.5169 4.15008 16.4936 3.82256C16.4703 3.49505 16.3827 3.17533 16.2358 2.88166C15.9392 2.28857 15.4192 1.8376 14.7901 1.62795C14.1609 1.4183 13.4743 1.46714 12.8812 1.76374C12.2881 2.06034 11.8372 2.5804 11.6275 3.20951C11.4179 3.83861 11.4667 4.52524 11.7633 5.11833V5.11833ZM11.7633 12.8817C11.4667 13.4749 11.4179 14.1616 11.6276 14.7908C11.8374 15.42 12.2885 15.9401 12.8817 16.2367C13.4749 16.5333 14.1616 16.5821 14.7908 16.3723C15.4199 16.1626 15.94 15.7115 16.2367 15.1183C16.5333 14.5251 16.5821 13.8384 16.3723 13.2092C16.1626 12.58 15.7115 12.0599 15.1183 11.7633C14.8246 11.6165 14.5048 11.5289 14.1773 11.5056C13.8497 11.4823 13.5207 11.5238 13.2092 11.6276C12.58 11.8374 12.0599 12.2885 11.7633 12.8817V12.8817Z" stroke="black" stroke-width="2" stroke-linecap="round" stroke-linejoin="round"/>
</svg>
