<svg width="18" height="18" viewBox="0 0 12 16" fill="none" xmlns="http://www.w3.org/2000/svg">
<path fill-rule="evenodd" clip-rule="evenodd" d="M3.6 3.19999C3.6 2.56347 3.85286 1.95302 4.30295 1.50293C4.75303 1.05284 5.36348 0.799988 6 0.799988C6.63652 0.799988 7.24697 1.05284 7.69706 1.50293C8.14715 1.95302 8.4 2.56347 8.4 3.19999V6.39999C8.4 7.03651 8.14715 7.64696 7.69706 8.09704C7.24697 8.54713 6.63652 8.79999 6 8.79999C5.36348 8.79999 4.75303 8.54713 4.30295 8.09704C3.85286 7.64696 3.6 7.03651 3.6 6.39999V3.19999ZM6.8 11.944C8.13297 11.7514 9.35192 11.085 10.2335 10.0668C11.115 9.04857 11.6002 7.7468 11.6 6.39999C11.6 6.18781 11.5157 5.98433 11.3657 5.8343C11.2157 5.68427 11.0122 5.59999 10.8 5.59999C10.5878 5.59999 10.3843 5.68427 10.2343 5.8343C10.0843 5.98433 10 6.18781 10 6.39999C10 7.46085 9.57858 8.47827 8.82843 9.22841C8.07828 9.97856 7.06087 10.4 6 10.4C4.93914 10.4 3.92172 9.97856 3.17157 9.22841C2.42143 8.47827 2 7.46085 2 6.39999C2 6.18781 1.91572 5.98433 1.76569 5.8343C1.61566 5.68427 1.41217 5.59999 1.2 5.59999C0.987828 5.59999 0.784345 5.68427 0.634316 5.8343C0.484287 5.98433 0.400002 6.18781 0.400002 6.39999C0.399823 7.7468 0.884962 9.04857 1.76652 10.0668C2.64809 11.085 3.86703 11.7514 5.2 11.944V13.6H2.8C2.58783 13.6 2.38435 13.6843 2.23432 13.8343C2.08429 13.9843 2 14.1878 2 14.4C2 14.6122 2.08429 14.8156 2.23432 14.9657C2.38435 15.1157 2.58783 15.2 2.8 15.2H9.2C9.41218 15.2 9.61566 15.1157 9.76569 14.9657C9.91572 14.8156 10 14.6122 10 14.4C10 14.1878 9.91572 13.9843 9.76569 13.8343C9.61566 13.6843 9.41218 13.6 9.2 13.6H6.8V11.944Z" fill="#8B8B8B"/>
</svg>




