<svg width="16" height="16" viewBox="0 0 16 16" fill="none" xmlns="http://www.w3.org/2000/svg">
<path d="M10.09 4.36994C10.0192 4.32888 9.94092 4.30225 9.85975 4.29159C9.77858 4.28093 9.6961 4.28645 9.61708 4.30783C9.53805 4.32922 9.46404 4.36604 9.39932 4.41617C9.3346 4.46631 9.28045 4.52877 9.24 4.59994L5.67 10.7799C5.62894 10.8508 5.60231 10.929 5.59165 11.0102C5.58099 11.0914 5.58651 11.1738 5.60789 11.2529C5.62927 11.3319 5.6661 11.4059 5.71623 11.4706C5.76637 11.5353 5.82883 11.5895 5.9 11.6299C5.99311 11.6868 6.10102 11.7146 6.21 11.7099C6.31915 11.7095 6.42631 11.6807 6.52097 11.6263C6.61564 11.572 6.69456 11.494 6.75 11.3999L10.32 5.21994C10.3624 5.14948 10.3902 5.07116 10.4016 4.98969C10.413 4.90822 10.4078 4.82529 10.3863 4.74589C10.3648 4.66649 10.3275 4.59225 10.2766 4.52764C10.2256 4.46303 10.1622 4.40939 10.09 4.36994Z" fill="#5D5FEF"/>
<path d="M7.35 6.42994C7.37171 5.86029 7.16734 5.30516 6.78146 4.88556C6.39558 4.46596 5.85947 4.21592 5.29 4.18994C4.71967 4.21594 4.18257 4.46564 3.79509 4.88494C3.40762 5.30423 3.20099 5.85934 3.22 6.42994C3.1983 7.00224 3.40371 7.55991 3.79147 7.98139C4.17923 8.40286 4.71788 8.65396 5.29 8.67994C5.86127 8.65399 6.39894 8.40255 6.7851 7.98077C7.17127 7.55899 7.37442 7.00128 7.35 6.42994ZM5.29 7.42994C5.05029 7.40221 4.83075 7.28239 4.67774 7.0958C4.52473 6.9092 4.45024 6.67044 4.47 6.42994C4.44763 6.1889 4.52116 5.94875 4.67466 5.76156C4.82815 5.57437 5.04924 5.45522 5.29 5.42994C5.53002 5.45514 5.75019 5.57466 5.9021 5.76219C6.054 5.94973 6.12519 6.18992 6.1 6.42994C6.12252 6.66943 6.05034 6.90821 5.89894 7.09513C5.74753 7.28205 5.52894 7.40224 5.29 7.42994Z" fill="#5D5FEF"/>
<path d="M10.71 7.31994C10.1405 7.34592 9.60442 7.59596 9.21854 8.01556C8.83266 8.43516 8.62829 8.9903 8.65 9.55994C8.62558 10.1313 8.82873 10.689 9.2149 11.1108C9.60106 11.5326 10.1387 11.784 10.71 11.8099C11.2821 11.784 11.8208 11.5329 12.2085 11.1114C12.5963 10.6899 12.8017 10.1322 12.78 9.55994C12.799 8.98934 12.5924 8.43424 12.2049 8.01494C11.8174 7.59564 11.2803 7.34594 10.71 7.31994ZM10.71 10.5599C10.4711 10.5322 10.2525 10.4121 10.1011 10.2251C9.94966 10.0382 9.87748 9.79943 9.9 9.55994C9.87748 9.32045 9.94966 9.08167 10.1011 8.89475C10.2525 8.70783 10.4711 8.58765 10.71 8.55994C10.9508 8.58522 11.1718 8.70437 11.3253 8.89156C11.4788 9.07875 11.5524 9.3189 11.53 9.55994C11.5498 9.80044 11.4753 10.0392 11.3223 10.2258C11.1693 10.4124 10.9497 10.5322 10.71 10.5599Z" fill="#5D5FEF"/>
<path d="M8 0.499942C5.94501 0.435234 3.94833 1.1887 2.44839 2.59489C0.94845 4.00108 0.0678685 5.94505 0 7.99994C0.0678685 10.0548 0.94845 11.9988 2.44839 13.405C3.94833 14.8112 5.94501 15.5647 8 15.4999C10.055 15.5647 12.0517 14.8112 13.5516 13.405C15.0515 11.9988 15.9321 10.0548 16 7.99994C15.9321 5.94505 15.0515 4.00108 13.5516 2.59489C12.0517 1.1887 10.055 0.435234 8 0.499942ZM8 14.2499C6.27717 14.3122 4.59981 13.6896 3.33484 12.5183C2.06987 11.347 1.32027 9.72246 1.25 7.99994C1.32027 6.27742 2.06987 4.65284 3.33484 3.48157C4.59981 2.3103 6.27717 1.6877 8 1.74994C9.72283 1.6877 11.4002 2.3103 12.6652 3.48157C13.9301 4.65284 14.6797 6.27742 14.75 7.99994C14.6797 9.72246 13.9301 11.347 12.6652 12.5183C11.4002 13.6896 9.72283 14.3122 8 14.2499Z" fill="#5D5FEF"/>
</svg>
